{
  "accessors": [
    {
      "bufferView": 2,
      "componentType": 5126,
      "count": 1096,
      "max": [
        1.0078047513961792,
        45.55210876464844,
        1.007805585861206
      ],
      "min": [
        -1.0078049898147583,
        -1.83476984500885,
        -1.0078012943267822
      ],
      "type": "VEC3"
    },
    {
      "bufferView": 2,
      "byteOffset": 13152,
      "componentType": 5126,
      "count": 1096,
      "max": [
        1.0,
        1.0,
        1.0
      ],
      "min": [
        -1.0,
        -1.0,
        -1.0
      ],
      "type": "VEC3"
    },
    {
      "bufferView": 1,
      "componentType": 5126,
      "count": 1096,
      "max": [
        0.9998754858970642,
        1.0
      ],
      "min": [
        0.0,
        -9.502481470419731e-17
      ],
      "type": "VEC2"
    },
    {
      "bufferView": 0,
      "componentType": 5125,
      "count": 3360,
      "type": "SCALAR"
    },
    {
      "bufferView": 3,
      "componentType": 5126,
      "count": 1,
      "max": [
        0.0416666679084301
      ],
      "min": [
        0.0416666679084301
      ],
      "type": "SCALAR"
    },
    {
      "bufferView": 4,
      "componentType": 5126,
      "count": 1,
      "max": [
        1.585355281829834,
        0.18721111118793488,
        1.585355281829834
      ],
      "min": [
        1.585355281829834,
        0.18721111118793488,
        1.585355281829834
      ],
      "type": "VEC3"
    }
  ],
  "animations": [
    {
      "channels": [
        {
          "sampler": 0,
          "target": {
            "node": 4,
            "path": "scale"
          }
        }
      ],
      "name": "Take 001",
      "samplers": [
        {
          "input": 4,
          "interpolation": "LINEAR",
          "output": 5
        }
      ]
    }
  ],
  "asset": {
    "extras": {
      "author": "celinecaruana (https://sketchfab.com/celinecaruana)",
      "license": "CC-BY-4.0 (http://creativecommons.org/licenses/by/4.0/)",
      "source": "https://sketchfab.com/3d-models/finished-chess-rook-78642056a3cc40aabab7571a151426e8",
      "title": "FINISHED CHESS ROOK"
    },
    "generator": "Sketchfab-15.25.0",
    "version": "2.0"
  },
  "bufferViews": [
    {
      "buffer": 0,
      "byteLength": 13440,
      "name": "floatBufferViews",
      "target": 34963
    },
    {
      "buffer": 0,
      "byteLength": 8768,
      "byteOffset": 13440,
      "byteStride": 8,
      "name": "floatBufferViews",
      "target": 34962
    },
    {
      "buffer": 0,
      "byteLength": 26304,
      "byteOffset": 22208,
      "byteStride": 12,
      "name": "floatBufferViews",
      "target": 34962
    },
    {
      "buffer": 0,
      "byteLength": 4,
      "byteOffset": 48512,
      "name": "floatBufferViews"
    },
    {
      "buffer": 0,
      "byteLength": 12,
      "byteOffset": 48516,
      "byteStride": 12,
      "name": "floatBufferViews"
    }
  ],
  "buffers": [
    {
      "byteLength": 48528,
      "uri": "scene.bin"
    }
  ],
  "extensionsUsed": [
    "KHR_materials_specular"
  ],
  "materials": [
    {
      "doubleSided": true,
      "extensions": {
        "KHR_materials_specular": {
          "specularColorFactor": [
            1.0,
            1.0,
            1.0
          ],
          "specularFactor": 0.2361904761904762
        }
      },
      "name": "Chess",
      "pbrMetallicRoughness": {
        "baseColorFactor": [
          0.608,
          0.608,
          0.608,
          1.0
        ],
        "metallicFactor": 0.0,
        "roughnessFactor": 0.3493333333333334
      }
    }
  ],
  "meshes": [
    {
      "name": "pCylinder3_Chess_0",
      "primitives": [
        {
          "attributes": {
            "NORMAL": 1,
            "POSITION": 0,
            "TEXCOORD_0": 2
          },
          "indices": 3,
          "material": 0,
          "mode": 4
        }
      ]
    }
  ],
  "nodes": [
    {
      "children": [
        1
      ],
      "matrix": [
        40.176658630371094,
        0.0,
        0.0,
        0.0,
        0.0,
        8.921010292788599e-15,
        -40.176658630371094,
        0.0,
        0.0,
        40.176658630371094,
        8.921010292788599e-15,
        0.0,
        0.0,
        0.0,
        0.0,
        1.0
      ],
      "name": "Sketchfab_model"
    },
    {
      "children": [
        2
      ],
      "matrix": [
        0.009999999776482582,
        0.0,
        0.0,
        0.0,
        0.0,
        0.0,
        0.009999999776482582,
        0.0,
        0.0,
        -0.009999999776482582,
        0.0,
        0.0,
        0.0,
        0.0,
        0.0,
        1.0
      ],
      "name": "78c734f9b8f3484f9d821cacd5a0d9ca.fbx"
    },
    {
      "children": [
        3
      ],
      "name": "Object_2"
    },
    {
      "children": [
        4
      ],
      "name": "RootNode"
    },
    {
      "children": [
        5
      ],
      "name": "pCylinder3",
      "scale": [
        1.585355281829834,
        0.12567755579948425,
        1.585355281829834
      ],
      "translation": [
        0.0,
        0.0,
        2.166696786880493
      ]
    },
    {
      "mesh": 0,
      "name": "pCylinder3_Chess_0"
    }
  ],
  "scene": 0,
  "scenes": [
    {
      "name": "Sketchfab_Scene",
      "nodes": [
        0
      ]
    }
  ]
}
