{
  "accessors": [
    {
      "bufferView": 1,
      "componentType": 5126,
      "count": 14850,
      "max": [
        -4.347893714904785,
        0.6061493158340454,
        2.409430503845215
      ],
      "min": [
        -5.560205459594727,
        -0.6061620116233826,
        -0.21321739256381989
      ],
      "type": "VEC3"
    },
    {
      "bufferView": 1,
      "byteOffset": 178200,
      "componentType": 5126,
      "count": 14850,
      "max": [
        1.0,
        1.0,
        1.0
      ],
      "min": [
        -1.0,
        -1.0,
        -1.0
      ],
      "type": "VEC3"
    },
    {
      "bufferView": 0,
      "componentType": 5125,
      "count": 89088,
      "type": "SCALAR"
    }
  ],
  "asset": {
    "extras": {
      "author": "BenAissa_Karim (https://sketchfab.com/BenAissa_Karim)",
      "license": "CC-BY-4.0 (http://creativecommons.org/licenses/by/4.0/)",
      "source": "https://sketchfab.com/3d-models/realistic-chess-piece-queen-7e4ff80fa2aa4af081dd03aab56ec2ff",
      "title": "Realistic Chess Piece – Queen"
    },
    "generator": "Sketchfab-16.64.0",
    "version": "2.0"
  },
  "bufferViews": [
    {
      "buffer": 0,
      "byteLength": 356352,
      "name": "floatBufferViews",
      "target": 34963
    },
    {
      "buffer": 0,
      "byteLength": 356400,
      "byteOffset": 356352,
      "byteStride": 12,
      "name": "floatBufferViews",
      "target": 34962
    }
  ],
  "buffers": [
    {
      "byteLength": 712752,
      "uri": "scene.bin"
    }
  ],
  "extensionsUsed": [
    "KHR_materials_specular"
  ],
  "materials": [
    {
      "doubleSided": true,
      "extensions": {
        "KHR_materials_specular": {
          "specularColorFactor": [
            1.0,
            1.0,
            1.0
          ],
          "specularFactor": 0.8640026331508819
        }
      },
      "name": "White",
      "pbrMetallicRoughness": {
        "baseColorFactor": [
          0.7991027380144088,
          0.665387298282272,
          0.4396571738409188,
          1.0
        ],
        "metallicFactor": 0.5287635162316685,
        "roughnessFactor": 0.38590289037071357
      }
    }
  ],
  "meshes": [
    {
      "name": "Sphere.003_White_0",
      "primitives": [
        {
          "attributes": {
            "NORMAL": 1,
            "POSITION": 0
          },
          "indices": 2,
          "material": 0,
          "mode": 4
        }
      ]
    }
  ],
  "nodes": [
    {
      "children": [
        1
      ],
      "matrix": [
        1.0,
        0.0,
        0.0,
        0.0,
        0.0,
        2.220446049250313e-16,
        -1.0,
        0.0,
        0.0,
        1.0,
        2.220446049250313e-16,
        0.0,
        0.0,
        0.0,
        0.0,
        1.0
      ],
      "name": "Sketchfab_model"
    },
    {
      "children": [
        2
      ],
      "matrix": [
        0.009999999776482582,
        0.0,
        0.0,
        0.0,
        0.0,
        0.0,
        0.009999999776482582,
        0.0,
        0.0,
        -0.009999999776482582,
        0.0,
        0.0,
        0.0,
        0.0,
        0.0,
        1.0
      ],
      "name": "46ae3e4ffb7940c28b9c50c17027f6ba.fbx"
    },
    {
      "children": [
        3
      ],
      "name": "RootNode"
    },
    {
      "children": [
        4
      ],
      "matrix": [
        100.0,
        0.0,
        0.0,
        0.0,
        -0.0,
        -1.629206793918314e-05,
        -99.99999999999868,
        0.0,
        0.0,
        99.99999999999868,
        -1.629206793918314e-05,
        0.0,
        -0.6708502769470215,
        18.595184326171875,
        -0.0005277980817481875,
        1.0
      ],
      "name": "Sphere.003"
    },
    {
      "mesh": 0,
      "name": "Sphere.003_White_0"
    }
  ],
  "scene": 0,
  "scenes": [
    {
      "name": "Sketchfab_Scene",
      "nodes": [
        0
      ]
    }
  ]
}
